<svg xmlns="http://www.w3.org/2000/svg" width="22" height="22" fill="none" viewBox="0 0 22 22">
  <path stroke="#fff" stroke-linecap="round" stroke-linejoin="round" stroke-width="1.2" d="M17.842 9.424V7.32a2.105 2.105 0 0 0-2.105-2.105h-8.42A2.105 2.105 0 0 0 5.21 7.32v8.42a2.105 2.105 0 0 0 2.105 2.105H9.42"/>
  <path stroke="#fff" stroke-linecap="round" stroke-linejoin="round" stroke-width="1.2" d="M11.525 11.528 21 14.685l-4.21 2.105L14.682 21l-3.158-9.472ZM1 1v.01M5.211 1v.01M9.42 1v.01M13.63 1v.01M1 5.214v.01M1 9.42v.011m0 4.196v.01"/>
</svg>
